<svg width="363" height="396" viewBox="0 0 363 396" fill="none" xmlns="http://www.w3.org/2000/svg">
<path d="M272.476 197.575C454.976 197.575 318.076 -39.525 226.876 118.575C318.176 -39.525 44.3763 -39.525 135.576 118.575C44.2763 -39.525 -92.5237 197.575 89.9763 197.575C-92.5237 197.575 44.3763 434.675 135.576 276.575C44.2763 434.675 318.076 434.675 226.876 276.575C318.076 434.675 454.976 197.575 272.476 197.575Z" fill="black"/>
<path d="M246.718 198C377.138 198 279.305 28.7929 214.132 141.621C279.377 28.7929 83.7124 28.7929 148.886 141.621C83.641 28.7929 -14.1197 198 116.299 198C-14.1197 198 83.7124 367.207 148.886 254.379C83.641 367.207 279.305 367.207 214.132 254.379C279.305 367.207 377.138 198 246.718 198Z" fill="white"/>
<path d="M229.092 198C324.262 198 252.871 74.3948 205.312 156.816C252.924 74.3948 110.142 74.3948 157.701 156.816C110.089 74.3948 38.7505 198 133.921 198C38.7505 198 110.142 321.605 157.701 239.184C110.089 321.605 252.871 321.605 205.312 239.184C252.871 321.605 324.262 198 229.092 198Z" fill="black"/>
</svg>
